<?xml version="1.0" standalone="no"?>
<!DOCTYPE svg PUBLIC "-//W3C//DTD SVG 20010904//EN"
 "http://www.w3.org/TR/2001/REC-SVG-20010904/DTD/svg10.dtd">
<svg version="1.0" xmlns="http://www.w3.org/2000/svg"
 width="512.000000pt" height="512.000000pt" viewBox="0 0 512.000000 512.000000"
 preserveAspectRatio="xMidYMid meet">

<g transform="translate(0.000000,512.000000) scale(0.100000,-0.100000)"
fill="#000000" stroke="none">
<path d="M199 4921 c-16 -16 -29 -39 -29 -52 0 -41 235 -536 370 -779 85 -152
266 -450 275 -450 5 0 95 148 95 157 0 5 -31 58 -68 118 -143 229 -335 594
-452 860 -76 173 -126 211 -191 146z"/>
<path d="M2215 4380 c-400 -36 -781 -229 -1035 -522 -285 -329 -437 -758 -417
-1178 22 -450 206 -860 532 -1185 207 -208 475 -377 750 -472 385 -133 739
-172 1546 -173 l396 0 21 -23 c14 -14 22 -36 22 -57 0 -18 -34 -154 -76 -302
-41 -148 -74 -273 -72 -277 2 -5 190 124 418 286 228 162 464 329 525 371 60
42 109 82 109 87 0 6 -121 97 -269 204 -621 448 -779 560 -781 558 -2 -2 30
-126 71 -277 41 -151 75 -292 75 -312 0 -47 -25 -74 -76 -84 -53 -10 -1007 3
-1134 16 -384 37 -655 104 -906 224 -505 242 -840 664 -955 1206 -32 151 -32
410 0 560 65 307 191 546 398 761 162 167 346 284 555 353 510 167 1078 24
1314 -331 82 -124 117 -247 116 -403 -1 -132 -25 -231 -88 -360 -38 -77 -62
-110 -128 -176 -66 -66 -99 -90 -176 -128 -149 -73 -224 -89 -420 -90 -138 -1
-182 3 -269 22 -343 77 -601 234 -904 552 l-115 121 -31 -80 c-17 -44 -31 -86
-31 -94 0 -17 230 -242 325 -318 288 -232 612 -359 956 -376 446 -22 794 167
960 522 124 264 123 559 -1 807 -97 192 -237 327 -455 436 -209 104 -498 155
-750 132z"/>
</g>
</svg>
